<mxfile host="app.diagrams.net" agent="Mozilla/5.0 (Windows NT 10.0; Win64; x64) AppleWebKit/537.36 (KHTML, like Gecko) Chrome/139.0.0.0 Safari/537.36" version="28.1.0">
  <diagram name="Page-1" id="jrSdHQMgK089XcJ-C_Xo">
    <mxGraphModel dx="872" dy="431" grid="1" gridSize="10" guides="1" tooltips="1" connect="1" arrows="1" fold="1" page="1" pageScale="1" pageWidth="850" pageHeight="1100" math="0" shadow="0">
      <root>
        <mxCell id="0" />
        <mxCell id="1" parent="0" />
        <mxCell id="vn2afhrgctd-0swqZbIL-9" value="&lt;p&gt;&lt;font face=&quot;Verdana&quot;&gt;DevOps is the process of building, deploying and testing the code written by developer on the same day instead of doing after complete development.. we can acheive this using continous integration, continous deployment, continous delivery and continous testing.&amp;nbsp;&lt;br&gt;We can do faster releases with less defect using DevOps... basically automation mindset to get the best results&lt;/font&gt;&lt;/p&gt;" style="rounded=0;whiteSpace=wrap;html=1;fillColor=#f8cecc;gradientColor=#ea6b66;strokeColor=#b85450;" parent="1" vertex="1">
          <mxGeometry x="110" y="70" width="460" height="260" as="geometry" />
        </mxCell>
      </root>
    </mxGraphModel>
  </diagram>
</mxfile>
